<?xml version="1.0" encoding="UTF-8"?>
<svg xmlns="http://www.w3.org/2000/svg" xmlns:xlink="http://www.w3.org/1999/xlink" viewBox="0 0 104 104" width="104px" height="104px">
<g id="surface23366567">
<path style=" stroke:none;fill-rule:nonzero;fill:rgb(19.215687%,22.745098%,18.431373%);fill-opacity:1;" d="M 80 8.125 C 77.796875 8.125 76 9.921875 76 12.125 L 76 31.25 L 54.875 10.125 C 53.3125 8.5625 50.6875 8.5625 49.125 10.125 L 2.25 57.125 C 0.6875 58.6875 0.6875 61.1875 2.25 62.75 C 3.8125 64.3125 6.3125 64.3125 7.875 62.75 L 52 18.625 L 96.25 62.875 C 97.03125 63.65625 98.09375 64.125 99.125 64.125 C 100.15625 64.125 101.09375 63.65625 101.875 62.875 C 103.4375 61.3125 103.4375 58.8125 101.875 57.25 L 88 43.375 L 88 12.125 C 88 9.921875 86.203125 8.125 84 8.125 Z M 52 26 L 8 70 L 8 92 C 8 98.625 13.375 104 20 104 L 84 104 C 90.625 104 96 98.625 96 92 L 96 70 Z M 44 64 L 60 64 C 62.203125 64 64 65.796875 64 68 L 64 92 C 64 94.203125 62.203125 96 60 96 L 44 96 C 41.796875 96 40 94.203125 40 92 L 40 68 C 40 65.796875 41.796875 64 44 64 Z M 44 64 "/>
</g>
</svg>
